# xmcd
#
# Track frame offsets: 
#        150
#        21146
#        38819
#        55331
#        73526
#        90813
#        104926
#        123641
#        135996
#        155616
#        173439
#        188324
#
# Disc length: 2719 seconds
#
# Revision: 0
# Processed by: cddbd v1.5.2PL0 Copyright (c) Steve Scherf et al.
# Submitted via: ExactAudioCopyFreeDBPlugin 1.0
#
DISCID=930a9d0c
DTITLE=Various Artist - Country Faith Hymns
DYEAR=2016
DGENRE=Gospel
TTITLE0=Willie Nelson - Uncloudy Day
TTITLE1=Johnny Cash - Were You There (When They Crucified My Lord)
TTITLE2=Vince Gill and Amy Grant - Rock of Ages
TTITLE3=Wade Hayes - Just as I Am
TTITLE4=Brad Paisley - The Old Rugged Cross
TTITLE5=George Jones - Softly and Tenderly
TTITLE6=Emmylou Harris, Dolly Parton and Linda Ronstadt - Farther Along
TTITLE7=Hank Williams - I Saw the Light
TTITLE8=Alan Jackson - Precious Memories
TTITLE9=Gene Watson - Help Me
TTITLE10=Collin Raye with Andrea Thomas - Come Thou Fount of Every Ble
TTITLE10=ssing
TTITLE11=Randy Travis - Blessed Assurance
EXTD=
EXTT0=
EXTT1=
EXTT2=
EXTT3=
EXTT4=
EXTT5=
EXTT6=
EXTT7=
EXTT8=
EXTT9=
EXTT10=
EXTT11=
PLAYORDER=
